<?xml version="1.0" standalone="no"?>
<!DOCTYPE svg PUBLIC "-//W3C//DTD SVG 20010904//EN"
 "http://www.w3.org/TR/2001/REC-SVG-20010904/DTD/svg10.dtd">
<svg version="1.0" xmlns="http://www.w3.org/2000/svg"
 width="934.000000pt" height="934.000000pt" viewBox="0 0 934.000000 934.000000"
 preserveAspectRatio="xMidYMid meet">
<metadata>
Created by potrace 1.11, written by Peter Selinger 2001-2013
</metadata>
<g transform="translate(0.000000,934.000000) scale(0.100000,-0.100000)"
fill="#000000" stroke="none">
<path d="M4752 7338 c-166 -23 -351 -147 -365 -243 -4 -22 -22 -157 -41 -300
-20 -143 -54 -395 -76 -560 -22 -165 -47 -349 -55 -410 -34 -264 -66 -492 -71
-519 -6 -28 -2 -25 54 31 106 108 256 195 404 234 96 26 284 36 385 19 171
-27 337 -109 464 -227 42 -40 79 -73 81 -73 3 0 -4 57 -13 128 -10 70 -43 314
-74 542 -31 228 -71 528 -90 665 -19 138 -42 309 -51 380 -17 130 -17 130 -58
173 -78 82 -203 143 -331 162 -79 11 -77 11 -163 -2z"/>
<path d="M2249 7107 c-20 -18 -92 -83 -160 -146 -68 -63 -142 -131 -164 -150
-22 -20 -116 -106 -210 -191 -93 -85 -188 -171 -210 -191 -37 -33 -120 -109
-385 -348 -250 -227 -352 -323 -348 -326 2 -2 161 -27 353 -55 376 -55 1321
-192 1655 -240 113 -16 360 -53 550 -80 596 -88 701 -102 705 -99 1 2 12 74
24 159 34 254 139 1036 156 1160 61 443 72 526 68 533 -2 4 -453 7 -1001 7
l-997 -1 -36 -32z"/>
<path d="M5390 7130 c0 -5 7 -53 15 -107 8 -54 28 -201 45 -328 17 -126 39
-293 50 -370 11 -77 40 -293 65 -480 25 -187 49 -369 55 -405 5 -36 12 -87 15
-114 l7 -48 41 5 c23 4 260 38 527 77 267 39 532 77 590 85 58 8 166 24 240
35 74 11 259 38 410 60 151 22 446 64 655 95 209 30 475 69 590 86 116 17 211
32 213 34 4 4 -67 69 -388 359 -25 23 -115 105 -200 182 -206 188 -468 426
-604 548 -61 55 -159 144 -218 198 l-107 98 -1000 0 c-640 0 -1001 -3 -1001
-10z"/>
<path d="M1520 5559 c0 -6 -20 -39 -44 -73 -90 -126 -314 -466 -308 -467 31
-2 2812 187 2812 192 0 3 -55 13 -122 22 -68 9 -341 48 -608 87 -267 39 -714
104 -995 145 -280 40 -557 81 -614 89 -125 19 -121 19 -121 5z"/>
<path d="M8035 5555 c-85 -14 -919 -135 -1795 -262 -289 -41 -528 -78 -533
-82 -4 -4 147 -17 335 -29 439 -29 735 -49 1686 -112 425 -29 776 -50 779 -47
2 3 -66 110 -153 239 -87 128 -169 250 -183 271 -13 20 -32 36 -40 36 -9 -1
-52 -7 -96 -14z"/>
<path d="M2865 5065 c-583 -40 -1061 -73 -1063 -74 -6 -2 -262 -564 -258 -568
1 -1 16 1 32 6 38 12 358 105 654 191 129 37 336 97 460 133 124 36 302 88
395 115 94 27 337 98 540 157 204 59 372 109 374 111 7 7 -40 4 -1134 -71z"/>
<path d="M5680 5137 c3 -3 156 -49 340 -102 645 -187 931 -270 1495 -435 514
-149 619 -179 621 -177 1 2 -59 136 -175 387 -16 36 -42 91 -56 122 -18 40
-33 59 -48 62 -12 3 -479 34 -1037 71 -558 36 -1044 68 -1080 72 -36 3 -63 3
-60 0z"/>
<path d="M3840 5021 c-91 -26 -316 -92 -500 -146 -184 -53 -364 -105 -400
-116 -36 -10 -157 -45 -270 -78 -113 -33 -296 -86 -407 -118 l-202 -58 -81
-250 c-45 -137 -90 -274 -101 -302 -10 -29 -16 -53 -14 -53 3 0 45 22 93 48
48 27 148 82 222 122 74 40 158 85 185 100 194 106 523 284 585 317 41 22 210
114 375 203 165 90 327 178 360 195 33 18 85 46 115 62 30 17 90 49 133 73 42
23 77 44 77 46 0 2 -1 4 -2 3 -2 0 -77 -22 -168 -48z"/>
<path d="M5660 5067 c3 -3 142 -79 310 -170 334 -179 361 -194 593 -321 87
-47 160 -86 162 -86 2 0 26 -13 52 -28 26 -16 98 -54 158 -87 61 -32 115 -61
120 -65 6 -4 73 -41 150 -82 77 -42 169 -91 205 -110 36 -20 121 -66 189 -102
69 -37 144 -79 168 -93 24 -14 43 -22 43 -17 0 12 -170 536 -184 569 -13 29
-23 33 -302 114 -159 46 -309 89 -334 97 -25 7 -155 45 -290 84 -372 107 -516
149 -620 180 -100 29 -371 108 -405 117 -11 3 -18 3 -15 0z"/>
<path d="M3985 4968 c-49 -27 -128 -70 -175 -95 -47 -25 -213 -116 -370 -201
-157 -85 -312 -169 -345 -187 -33 -18 -145 -79 -250 -135 -104 -57 -230 -125
-280 -151 -49 -26 -95 -56 -102 -66 -14 -22 -176 -833 -168 -841 3 -3 16 5 29
18 27 29 310 305 501 489 72 69 202 196 290 281 88 86 295 286 460 445 391
378 511 495 505 494 -3 0 -45 -23 -95 -51z"/>
<path d="M5600 5018 c0 -3 55 -58 122 -124 301 -293 446 -434 484 -470 23 -21
97 -93 165 -159 68 -66 254 -246 414 -400 159 -154 359 -348 445 -432 85 -83
156 -149 158 -145 2 6 -143 741 -163 829 -5 23 -27 37 -250 156 -77 41 -156
83 -175 94 -37 21 -243 133 -350 191 -36 19 -108 58 -160 87 -52 29 -131 72
-175 95 -346 185 -492 264 -502 272 -7 6 -13 8 -13 6z"/>
<path d="M1701 2285 c-83 -26 -121 -83 -121 -185 l0 -60 -50 -25 c-49 -25 -50
-27 -50 -70 l0 -44 48 -3 47 -3 3 -262 2 -263 90 0 90 0 0 265 0 265 75 0 75
0 0 70 0 70 -75 0 -75 0 0 39 c0 63 52 86 137 62 l32 -9 20 61 c12 33 21 66
21 73 0 29 -191 43 -269 19z"/>
<path d="M6373 2290 c-45 -19 -58 -99 -24 -141 16 -20 29 -24 74 -24 73 0 97
21 97 85 0 34 -5 52 -20 65 -22 20 -95 29 -127 15z"/>
<path d="M180 1805 l0 -435 90 0 90 0 0 435 0 435 -90 0 -90 0 0 -435z"/>
<path d="M5789 2153 c-41 -111 -42 -113 -90 -143 -45 -28 -49 -33 -49 -70 l0
-40 45 0 45 0 0 -199 c0 -117 4 -211 11 -228 18 -49 67 -91 122 -104 54 -13
151 -7 205 11 32 12 32 12 32 82 0 63 -2 69 -17 63 -44 -17 -122 -18 -148 -1
l-25 16 0 180 0 180 90 0 90 0 0 70 0 70 -90 0 -90 0 0 70 0 70 -60 0 c-57 0
-61 -2 -71 -27z"/>
<path d="M948 2038 c-21 -5 -58 -28 -83 -50 -30 -27 -46 -35 -49 -26 -3 7 -9
27 -14 43 -8 29 -11 30 -75 33 l-67 3 0 -336 0 -335 89 0 90 0 3 218 c3 187 6
222 21 250 31 56 126 81 176 46 45 -32 51 -67 51 -299 l0 -215 91 0 90 0 -3
263 c-3 249 -4 264 -25 304 -51 94 -169 135 -295 101z"/>
<path d="M2307 2039 c-99 -23 -182 -99 -212 -194 -24 -77 -18 -240 12 -306 29
-66 77 -114 141 -146 50 -25 68 -28 152 -28 84 0 102 3 152 28 66 32 101 70
137 147 23 49 26 67 26 165 0 116 -15 169 -65 232 -70 90 -214 133 -343 102z
m174 -165 c36 -32 50 -80 50 -169 0 -132 -32 -184 -119 -193 -104 -10 -147 47
-147 193 0 105 15 149 59 177 40 25 125 21 157 -8z"/>
<path d="M3233 2025 c-28 -15 -63 -42 -78 -61 -15 -19 -30 -32 -34 -29 -3 4
-11 28 -16 53 l-10 47 -68 3 -67 3 0 -336 0 -335 89 0 90 0 3 209 3 210 30 31
c42 45 61 53 135 59 l65 6 6 75 c3 41 4 78 2 83 -10 17 -101 6 -150 -18z"/>
<path d="M3886 2035 c-21 -7 -56 -30 -76 -50 -41 -40 -45 -39 -55 18 l-7 37
-69 0 -69 0 0 -335 0 -335 89 0 90 0 3 218 c3 185 6 222 21 249 31 57 116 82
164 48 36 -25 43 -77 43 -302 l0 -213 89 0 90 0 3 213 c2 178 6 218 21 247 33
68 120 92 172 48 35 -31 45 -103 45 -330 l0 -178 91 0 91 0 -5 258 c-4 288 -9
314 -68 367 -85 76 -232 74 -323 -6 l-43 -38 -41 38 c-61 58 -168 77 -256 46z"/>
<path d="M5044 2035 c-67 -14 -124 -40 -124 -55 0 -5 12 -34 26 -63 l27 -54
51 20 c33 13 77 20 123 21 84 1 106 -14 117 -76 l7 -38 -55 0 c-82 0 -206 -19
-251 -39 -80 -35 -123 -119 -110 -215 16 -124 102 -185 242 -173 70 7 105 22
153 67 18 17 34 29 35 28 1 -2 8 -21 16 -43 l15 -40 62 -3 62 -3 0 258 c0 232
-2 262 -19 300 -48 104 -198 147 -377 108z m221 -365 c3 -6 3 -31 -1 -57 -9
-60 -54 -111 -106 -120 -74 -11 -118 16 -118 73 0 60 25 88 95 105 46 11 123
10 130 -1z"/>
<path d="M6936 2036 c-52 -20 -110 -78 -138 -140 -21 -46 -23 -66 -23 -192 l0
-141 35 -69 c27 -53 45 -74 81 -96 90 -56 208 -47 280 22 l39 37 0 -189 0
-188 90 0 90 0 0 480 0 480 -79 0 -79 0 -7 -46 -7 -46 -31 32 c-17 17 -44 38
-61 47 -42 22 -142 27 -190 9z m234 -171 c51 -49 65 -206 26 -299 -36 -86
-177 -89 -223 -3 -14 24 -18 55 -18 132 0 155 37 209 138 202 36 -3 55 -11 77
-32z"/>
<path d="M8737 2040 c-84 -22 -146 -75 -186 -160 -21 -45 -26 -73 -29 -160 -3
-90 -1 -114 18 -165 29 -78 96 -145 171 -171 76 -27 253 -25 324 2 l50 20 3
71 3 72 -58 -21 c-84 -29 -199 -35 -246 -13 -45 21 -76 62 -84 110 l-6 35 218
0 218 0 -6 88 c-3 48 -11 104 -18 126 -18 53 -90 130 -141 151 -51 20 -177 28
-231 15z m152 -133 c31 -16 58 -54 66 -94 l7 -33 -131 0 -131 0 6 28 c12 47
33 81 62 96 33 19 89 20 121 3z"/>
<path d="M6340 1705 l0 -335 90 0 90 0 0 335 0 335 -90 0 -90 0 0 -335z"/>
<path d="M7662 1783 c3 -238 5 -262 24 -304 12 -25 37 -58 55 -72 92 -69 249
-60 330 19 l38 37 9 -24 c5 -13 11 -33 13 -44 4 -17 13 -20 77 -23 l72 -3 0
336 0 335 -89 0 -88 0 -5 -202 c-4 -177 -7 -209 -25 -250 -48 -106 -193 -106
-223 0 -5 20 -10 130 -10 245 l0 207 -91 0 -90 0 3 -257z"/>
</g>
</svg>
